<?xml version="1.0" encoding="UTF-8"?>
<svg data-bbox="0 0 400 300.349" viewBox="0 0 400 300.47" height="300.47" width="400" xmlns="http://www.w3.org/2000/svg" data-type="color">
    <g>
        <path fill-rule="evenodd" fill="#04040a" d="M73.333 129.333v129.334H332V0H73.333v129.333m246.5-.083v117.083H85.5V12.167h234.333V129.25m-219-90v10.083h70.695l-.075 64.959c-.042 35.727-.167 75.97-.28 89.428-.112 13.459-.154 24.522-.092 24.584.104.103 26.576.336 26.741.235.039-.024.133-9.511.208-21.083.075-11.572.155-22.87.178-25.108l.042-4.07 18.25.039c19.937.042 23.308-.056 31.417-.911 38.634-4.076 61.625-25.373 55.314-51.239-3.975-16.293-23.351-27.811-52.398-31.15-8.62-.991-12.674-1.153-34-1.359-10.312-.099-18.843-.21-18.958-.247-.165-.053-.208-4.615-.208-22.072V49.333H268.5V29.167H100.833V39.25M224 109.087c17.931.191 27.54 1.495 36.033 4.89 10.916 4.363 16.027 11.092 16.031 21.106.002 6.852-1.724 11.118-6.381 15.762-7.519 7.499-16.95 10.748-34.6 11.919-3.545.236-36.491.383-36.71.165-.036-.037.015-9.129.114-20.206s.18-23.235.18-27.018v-6.879l8.625.088c4.743.048 12.262.126 16.708.173M80.5 265.412c-3.039.561-5.627 1.635-7.853 3.256-1.217.885-3.014 2.787-3.492 3.693-.113.214-.252.426-.309.472-1.7 1.363-3.124 9.701-2.339 13.7 1.528 7.788 5.935 12.081 13.91 13.549 1.584.291 7.276.342 8.616.076 2.331-.462 4.655-1.102 5.759-1.587.955-.419 1.609-.7 2.25-.963l.625-.258v-8.85h-1.153c-.634 0-1.178.059-1.208.131-.088.205-1.955 1.581-3.056 2.252-8.151 4.966-16.491-.276-15.26-9.591.279-2.114 1.074-4.491 1.658-4.959.057-.046.313-.364.569-.707 1.752-2.351 6.199-3.449 9.675-2.388 1.683.513 4.89 2.236 5.441 2.924.441.549 1.211.838 2.234.838h1.1v-8.936l-.709-.298a79.914 79.914 0 0 1-1.409-.613c-1.624-.729-4.03-1.375-6.735-1.809-1.446-.232-6.933-.187-8.314.068m152.25-.069c-2.699.577-3.833.951-5.372 1.767-5.55 2.944-8.271 8.09-8.271 15.64 0 9.804 4.575 15.621 13.693 17.41 1.14.224 6.65.225 7.668.002.43-.094 1.157-.25 1.615-.346 8.71-1.82 13.777-11.131 11.735-21.566-.822-4.199-2.77-7.44-5.985-9.957-3.129-2.449-10.598-3.91-15.083-2.95m40.833.013c-10.518 1.89-16.06 9.528-14.676 20.227.885 6.848 4.024 10.974 10.343 13.599 3.215 1.336 10.278 1.562 15.167.485 1.929-.425 3.514-.857 5.15-1.406l1.183-.397.043-8.432.043-8.432h-15.669v6.5h6.666v6.551l-2.625-.109c-7.541-.316-11.079-3.915-11.083-11.275-.004-9.31 8.175-13.771 17.083-9.317.756.378 2.097 1.204 2.978 1.836 1.165.833 1.746 1.147 2.125 1.147h.522v-4.063c0-4.478.071-4.195-1.166-4.674-.413-.16-.975-.393-1.25-.519-3.377-1.548-10.923-2.424-14.834-1.721M0 269.667v3.833h10.667v26.333H21V273.5h10.833v-7.667H0v3.834m35.833 13.166v17h26.334v-7.666H46v-6.834h15v-7.666H46V273.5h16.167v-7.667H35.833v17m66.834 0v17H113v-14.5h11.833v14.505l5.125-.044 5.125-.044.043-16.958.042-16.959h-10.335v11.834H113v-11.834h-10.333v17m47.5-.083v16.917h9v-10.834h2.826c4.957 0 7.655-.453 10.017-1.682 5.496-2.859 7.705-8.407 5.837-14.658-.722-2.415-3.256-4.727-6.31-5.754-2.532-.853-3.266-.905-12.662-.905l-8.708-.001v16.917m34.333 0v16.917h8.833v-12.334l1.875.003c2.065.003 2.054-.001 2.625.831.221.32.446.62.5.666.055.046.28.346.5.667.221.321.446.621.5.667.055.045.28.345.5.666.221.321.446.621.5.667.055.046.28.346.5.667.221.32.446.62.5.666.055.046.283.346.506.667.405.581.756 1.033 1.083 1.394.095.104.354.452.575.773.222.32.448.62.503.666.055.046.281.346.503.667.221.321.48.665.575.765.095.099.434.568.755 1.041l.584.86h5.458c3.002.001 5.458-.056 5.458-.124 0-.123-.891-1.274-4.284-5.54a181.222 181.222 0 0 1-2.216-2.839c-.501-.669-1.209-1.548-1.338-1.663-.052-.046-.275-.346-.495-.667-.22-.321-.444-.621-.496-.666-.053-.046-.355-.421-.671-.834a17.851 17.851 0 0 0-.663-.833 11.888 11.888 0 0 1-.55-.703l-.462-.619.713-.362c8.187-4.156 7.906-15.416-.454-18.229-1.992-.671-3.308-.748-12.792-.751l-9.125-.003v16.917m114 0v16.917h24.833V293H307.5v-8.167h14.667v-6.666H307.5V272.5h15.833v-6.667H298.5v16.917m32 0v16.917h8.167l.001-11.375.001-11.375.806 1.25c.443.687 1.204 1.887 1.692 2.666 1.038 1.658 2.652 4.215 3.443 5.456.306.48.557.914.557.965 0 .052.076.184.17.295.341.404 1.496 2.3 1.496 2.457 0 .088.075.161.167.161.092 0 .167.074.167.165 0 .148.622 1.173 3.387 5.585.459.733 1.166 1.877 1.571 2.541l.736 1.209h8.639v-33.834h-8.164l-.043 9.459-.043 9.458-.494-.833c-.271-.459-.553-.859-.625-.889-.072-.031-.131-.127-.131-.215 0-.087-.45-.828-1-1.646s-1-1.531-1-1.584c0-.054-.076-.188-.169-.298-.244-.291-3.565-5.442-3.891-6.035-.151-.275-.762-1.25-1.358-2.167a669.082 669.082 0 0 1-1.245-1.916l-1.163-1.792-1.001-1.542H330.5v16.917m35.812-16.125c.645 1.088 3.362 5.606 3.984 6.625.28.458 1.745 2.896 3.255 5.417 1.51 2.521 3.279 5.464 3.931 6.54l1.185 1.957v12.503h8.833v-12.836l1.185-1.957c.652-1.077 2.238-3.72 3.524-5.874 1.285-2.154 2.665-4.422 3.064-5.04.4-.617.727-1.166.727-1.22 0-.053.225-.424.5-.823.275-.4.5-.807.5-.905 0-.098.056-.179.125-.18.069-.001.208-.169.309-.375s.72-1.254 1.375-2.331c.655-1.076 1.191-2.032 1.191-2.125 0-.109-1.712-.168-4.882-.168h-4.882l-.455.875c-.25.482-.628 1.175-.839 1.542a92.74 92.74 0 0 0-1.053 1.917 204.75 204.75 0 0 1-1.131 2.083c-.488.88-1.084 1.976-2.264 4.167a64.524 64.524 0 0 1-.986 1.774l-.267.441-1.542-2.774a493.374 493.374 0 0 0-1.926-3.441c-.378-.66-.946-1.683-1.965-3.542a27.073 27.073 0 0 0-.799-1.375 14.58 14.58 0 0 1-.596-1.042l-.322-.625h-10.249l.47.792m-277.645-.038c2.267.321 3.942.76 5.956 1.562l1.627.648.045 3.518c.051 3.98.112 3.844-1.266 2.805-9.446-7.124-19.268-3.192-19.268 7.713 0 10.757 9.995 14.727 19.316 7.672.609-.461 1.141-.838 1.182-.838.041 0 .074 1.562.074 3.472v3.472l-1.708.678c-15.624 6.204-28.999-2.369-26.9-17.244 1.106-7.837 5.713-12.226 14.275-13.599 1.047-.168 5.085-.083 6.667.141M30.5 269.581v2.581l-5.375.044-5.375.044-.043 13.211-.042 13.212-3.791-.045-3.791-.045-.042-13.208-.043-13.208H1.167V267H30.5v2.581m30.5.002v2.584H44.833v6.663l7.459.043 7.458.044.046 2.625.046 2.625H44.833v9.166h16.175l-.045 2.625-.046 2.625H37.083l-.042-15.791L36.998 267H61v2.583m50.833 3.334v5.916H126V267h7.833v31.673l-3.875-.045-3.875-.045-.043-7.208-.044-7.208h-14.159l-.044 7.208-.043 7.208h-7.667l-.042-15.791-.043-15.792h7.835v5.917m127.312-.825c3.838 1.335 5.688 4.837 5.688 10.764 0 6.874-3.053 10.977-8.166 10.977-5.208 0-8.205-4.014-8.215-11-.011-8.157 4.653-12.842 10.693-10.741m-39.898.259c3.051.374 4.253 1.5 4.253 3.982 0 3.379-2.004 4.661-7.292 4.665l-2.875.002v-8.833h2.209c1.214 0 2.882.083 3.705.184m-33.174.387c4.526 1.457 4.254 7.542-.406 9.097-.321.107-1.915.236-3.542.287l-2.958.092v-9.925l3.041.092c2.102.064 3.296.174 3.865.357" data-color="1"/>
        <path fill-rule="evenodd" fill="#f3cb23" d="M85.667 129.333v117h234v-234h-234v117M268.5 39.25v10.083h-70.667v43.962l5.209.102c2.864.055 10.72.142 17.458.191 21.221.155 29.964.795 41.167 3.01 1.182.234 1.78.368 4.458 1.001 14.716 3.478 27.367 10.97 33.324 19.735.472.694.691 1.06 1.521 2.541 2.937 5.24 4.188 14.59 2.804 20.958-4.054 18.652-23.6 32.345-51.607 36.153-10.016 1.362-15.967 1.596-37.098 1.455l-16.681-.11-.111 7.528a1391.31 1391.31 0 0 0-.111 16.543c0 4.958-.05 12.907-.11 17.665l-.111 8.65-13.514-.122c-7.432-.067-13.517-.134-13.522-.15-.006-.016.052-8.016.127-17.778.075-9.763.179-50.057.231-89.542l.095-71.792h-70.695V29.167H268.5V39.25m-69.722 80.292a9110.81 9110.81 0 0 0-.221 26.891l-.112 16.35 13.268.121c21.859.201 29.977-.256 38.462-2.165 18.898-4.251 29.013-16.801 25.244-31.322-2.787-10.738-14.235-17.407-33.336-19.42-5.863-.618-19.243-.97-37.681-.991l-5.514-.006-.11 10.542M80.25 266.843c-8.33 1.728-12.863 7.79-12.535 16.767.292 8.004 4.169 13.024 11.489 14.881 4.87 1.235 12.03.498 16.338-1.682l.625-.316v-6.687l-.459.352c-3.599 2.769-6.289 3.844-9.602 3.839-6.711-.009-10.434-3.992-10.434-11.164 0-11.216 10.153-15.027 19.87-7.458l.625.486v-7.002l-1.729-.676c-4.194-1.64-10.067-2.195-14.188-1.34m-78.917 2.74v2.584H12V298.5h7.667v-26.333H30.5V267H1.333v2.583m35.834 13.167v15.75h23.666v-4.997l-8.041-.043-8.042-.043v-9.334l7.458-.043 7.459-.043V279h-15v-6.833h16.166V267H37.167v15.75m67 0v15.75h7.496l.044-7.208.043-7.209 7.208-.043 7.209-.044V298.5h7.666V267h-7.666v12h-14.5v-12h-7.5v15.75" data-color="2"/>
        <path fill-rule="evenodd" fill="#a27a15" d="M100.745 39.25c0 5.592.021 7.855.047 5.03.025-2.826.025-7.401 0-10.167-.026-2.766-.047-.455-.047 5.137m97.003 32.083c0 12.146.019 17.115.044 11.042.024-6.073.024-16.01 0-22.083-.025-6.073-.044-1.104-.044 11.041m15.127 22.291c.894.03 2.356.03 3.25 0 .894-.03.162-.054-1.625-.054s-2.519.024-1.625.054m18.083.166a15.48 15.48 0 0 0 1.75 0c.482-.034.088-.062-.875-.062-.962 0-1.356.028-.875.062m5.669.161c.207.04.507.039.667-.003.159-.042-.011-.074-.377-.073-.367.002-.497.036-.29.076m3.5.167c.207.04.507.038.667-.003.159-.042-.011-.075-.377-.073-.367.002-.497.036-.29.076m4.748.33c.16.042.423.042.583 0 .161-.042.029-.076-.291-.076-.321 0-.452.034-.292.076m-46.173 16.344.036 1.958.053-1.871.053-1.872 3.036-.049 3.037-.049-3.125-.038-3.125-.038.035 1.959m21.599-1.667c1.128.028 2.928.028 4-.001s.149-.052-2.051-.052-3.077.024-1.949.053m11.993.16c.207.039.507.038.666-.004.16-.042-.01-.074-.377-.072-.366.002-.497.036-.289.076m3.081.163c.16.042.423.042.583 0 .161-.042.029-.076-.291-.076-.321 0-.452.034-.292.076m-36.804 24.635c0 1.925.024 2.69.053 1.7.03-.991.03-2.566 0-3.5-.029-.935-.054-.125-.053 1.8m105.659.584c0 1.054.027 1.485.06.958.033-.527.033-1.39 0-1.917-.033-.527-.06-.096-.06.959m-132.818 21.916c0 5.5.021 7.726.046 4.947.026-2.78.026-7.28 0-10-.025-2.721-.046-.447-.046 5.053m26.995.167c0 2.842.023 4.028.051 2.635.028-1.392.028-3.717 0-5.166-.028-1.45-.05-.311-.051 2.531m1.142 6.207c.715.032 1.84.031 2.5 0 .661-.032.076-.057-1.299-.057s-1.915.026-1.201.057m31.828-.004c.254.038.629.037.834-.002.205-.04-.003-.071-.461-.07-.458.001-.626.034-.373.072m-9.752.169c.39.035 1.027.035 1.417 0 .389-.035.07-.064-.709-.064-.779 0-1.098.029-.708.064m22.917 14.66c.16.041.423.041.583 0 .16-.042.029-.077-.292-.077s-.452.035-.291.077m-4.75.336c.206.039.543.039.75 0 .206-.04.037-.073-.375-.073-.413 0-.582.033-.375.073m-41.551.262c-.045.118-.06 1.599-.033 3.292l.05 3.078.038-3.202.037-3.203 1.625-.054 1.625-.055-1.63-.034c-1.198-.026-1.652.021-1.712.178m38.301-.098c.16.041.423.041.583 0 .16-.042.029-.077-.292-.077s-.452.035-.291.077m-15.489.176c2.184.027 5.709.027 7.833 0 2.125-.026.339-.048-3.969-.048-4.309 0-6.047.022-3.864.048m-49.818 5.875c0 1.605.025 2.261.056 1.459.03-.802.03-2.115 0-2.917-.031-.802-.056-.146-.056 1.458m26.839 19.084c0 2.841.023 4.027.051 2.635.027-1.392.028-3.717 0-5.167-.028-1.449-.051-.31-.051 2.532m-26.999 4.083c0 3.162.022 4.456.05 2.875a204.1 204.1 0 0 0 0-5.75c-.028-1.581-.05-.287-.05 2.875m26.821 19.333c0 1.054.027 1.486.06.959.034-.527.034-1.39 0-1.917-.033-.527-.06-.096-.06.958m-26.271 1.622c.39.035 1.027.035 1.417 0 .389-.035.07-.063-.709-.063-.779 0-1.098.028-.708.063m18.25.17c1.26.028 3.323.028 4.583 0 1.261-.029.23-.052-2.291-.052s-3.552.023-2.292.052M82.542 266.448c.16.042.423.042.583 0 .16-.042.029-.076-.292-.076s-.452.034-.291.076m3.918.003c.208.04.508.039.667-.003.159-.042-.01-.074-.377-.073-.367.002-.497.036-.29.076m-49.378 16.382.001 15.75h23.834l.006-2.666.007-2.667-.052 2.625-.053 2.625H37.168l-.043-15.708-.044-15.709.001 15.75m23.819-13.25c0 1.467.026 2.045.056 1.284.031-.761.031-1.961 0-2.667-.031-.706-.056-.083-.056 1.383m50.805 3.375-.039 6.042h14.5l-.04-6.042-.039-6.041-.046 5.958-.046 5.958h-14.158l-.046-5.958-.046-5.958-.04 6.041m-15.54-.658.083 3.617.046-3.489c.025-1.918-.013-3.546-.083-3.617-.071-.07-.091 1.499-.046 3.489m-51.421 3.242.005 3.375 7.454.043 7.454.043.052 2.54.053 2.54-.007-2.583-.006-2.583-7.455-.044-7.455-.043-.05-3.332-.051-3.332.006 3.376m33.746-1.084-.574.625.625-.574c.581-.535.701-.676.574-.676-.028 0-.309.282-.625.625m-10.929 8.375c0 .963.027 1.357.061.875.034-.481.034-1.268 0-1.75-.034-.481-.061-.087-.061.875M44.74 288.75c0 2.567.023 3.593.051 2.282.029-1.312.028-3.412 0-4.667s-.051-.182-.051 2.385m66.966 2.539-.039 7.205-3.792.048-3.792.048 3.797.038c2.913.03 3.816-.01 3.877-.17.044-.114.06-3.395.035-7.291l-.046-7.084-.04 7.206m14.375.044.002 7.25 3.834.005 3.833.005-3.79-.05-3.79-.049-.046-7.205-.046-7.206.003 7.25m-30.18-1.474c-.073.118-.046.147.07.076.138-.086.202.818.237 3.349l.049 3.466.038-3.542c.036-3.296-.038-3.925-.394-3.349m-81.85 8.766c1.082.029 2.807.029 3.833-.001 1.026-.029.141-.053-1.967-.053-2.109.001-2.948.024-1.866.054" data-color="3"/>
        <path fill-rule="evenodd" fill="#ba8d14" d="M319.75 129.25c0 64.35.018 90.7.042 58.555.023-32.144.023-84.794 0-117-.024-32.205-.042-5.905-.042 58.445M171.416 98c0 26.813.019 37.781.042 24.375.024-13.406.024-35.344 0-48.75-.023-13.406-.042-2.437-.042 24.375m26.711-4.549c.207.04.507.039.667-.003.159-.042-.011-.074-.377-.073-.367.002-.497.036-.29.076m19.748.164c.16.042.423.042.583 0 .161-.042.029-.076-.291-.076-.321 0-.452.034-.292.076m-.415 15.503c.208.04.508.038.667-.003.159-.042-.01-.075-.377-.073-.367.002-.497.036-.29.076m-18.732 5.215c0 .963.028 1.357.062.875a15.48 15.48 0 0 0 0-1.75c-.034-.481-.062-.087-.062.875m-.183 23.834c0 .412.033.581.073.375a2.418 2.418 0 0 0 0-.75c-.04-.207-.073-.038-.073.375m-.173 24.166c0 .321.034.452.076.292.042-.16.042-.423 0-.583-.042-.161-.076-.03-.076.291m5.592.623c.484.034 1.234.034 1.667 0 .432-.035.036-.062-.881-.062-.917.001-1.27.029-.786.062m11.491 15.498c.295.036.82.037 1.166.001s.104-.066-.538-.067c-.641-.001-.924.029-.628.066M171.205 181c0 .321.035.452.077.292a1.402 1.402 0 0 0 0-.584c-.042-.16-.077-.029-.077.292m27.004 4.25c.002.367.036.497.076.29a1.834 1.834 0 0 0-.004-.667c-.042-.159-.074.01-.072.377m-27.156 15.583c0 .596.031.84.068.542a5.297 5.297 0 0 0 0-1.083c-.037-.298-.068-.055-.068.541m27.006 9.084c0 .825.028 1.183.063.796a10.87 10.87 0 0 0 .001-1.5c-.035-.438-.063-.121-.064.704m-27.184 17.833c.002.367.036.497.076.29.04-.208.039-.508-.003-.667-.042-.159-.074.01-.073.377m15.42.871c.299.037.749.036 1-.002.25-.038.005-.068-.545-.067-.55.001-.755.032-.455.069" data-color="4"/>
        <path fill-rule="evenodd" fill="#c2a21c" d="M85.577 12.375c-.043.115-.06 52.783-.036 117.042l.043 116.833.041-116.958.042-116.958 117.041-.042 117.042-.042-117.047-.042c-93.515-.033-117.063.001-117.126.167m114.381 81.082c.573.032 1.511.032 2.084 0 .573-.033.104-.059-1.042-.059-1.146 0-1.615.026-1.042.059m19.167.164c.298.037.785.037 1.083 0 .298-.037.054-.068-.541-.068-.596 0-.84.031-.542.068m-4.328 15.502a13.62 13.62 0 0 0 1.667-.001c.432-.034.036-.062-.881-.061-.916 0-1.27.028-.786.062m15.324.164c.296.037.821.037 1.167.001.346-.036.104-.066-.538-.067-.642 0-.925.029-.629.066m-31.384 10.13c0 1.925.025 2.689.054 1.699.03-.99.03-2.565 0-3.5s-.054-.124-.054 1.801m-.179 20.75c0 .779.029 1.098.064.708a9.575 9.575 0 0 0 0-1.417c-.035-.389-.064-.071-.064.709m71.103 10.625-.911.958.958-.911c.891-.846 1.035-1.006.911-1.006-.026 0-.457.432-.958.959m-61.536 12.166a80.83 80.83 0 0 0 3.75 0c1.031-.029.188-.053-1.875-.053-2.062 0-2.906.024-1.875.053m20.5-.004c.298.037.785.037 1.083 0 .298-.037.054-.067-.541-.067-.596 0-.84.03-.542.067m-57.404 16.463c.001.641.031.883.067.538a6.222 6.222 0 0 0-.001-1.167c-.037-.296-.066-.013-.066.629m39.912-.96c.761.031 1.961.031 2.667 0 .706-.031.083-.056-1.383-.056-1.467 0-2.045.026-1.284.056m22.494-.006c.207.04.507.039.667-.003.159-.042-.011-.074-.377-.073-.367.002-.497.036-.29.076m-35.403 8.632c0 .734.03 1.013.065.621a8.344 8.344 0 0 0-.001-1.333c-.036-.342-.065-.021-.064.712m-27.159 10.584c0 1.237.027 1.743.059 1.125a26.38 26.38 0 0 0 0-2.25c-.032-.619-.059-.113-.059 1.125m27.004 16.583c0 1.65.025 2.302.055 1.45.031-.853.03-2.203 0-3-.031-.798-.055-.1-.055 1.55m-27.181 11.833c.001.642.031.884.067.538a6.297 6.297 0 0 0-.001-1.166c-.037-.296-.067-.013-.066.628m12.404 2.54c.481.034 1.268.034 1.75 0 .481-.034.087-.061-.875-.061-.963 0-1.357.027-.875.061m-99.171 37.831c.296.036.821.037 1.167.001.346-.036.104-.066-.538-.067-.642-.001-.925.029-.629.066m-82.887 3.129c0 1.467.026 2.045.057 1.284.031-.761.031-1.961-.001-2.667-.031-.706-.056-.083-.056 1.383m102.846 13.25c0 8.663.02 12.207.045 7.875.025-4.331.025-11.418 0-15.75-.025-4.331-.045-.787-.045 7.875m-55.527 1.292c2.092.026 5.467.026 7.5 0 2.033-.027.322-.048-3.803-.048s-5.789.021-3.697.048m66.822 0c1.994.026 5.256.026 7.25 0 1.994-.027.362-.049-3.625-.049s-5.619.022-3.625.049m-66.583 9.333c2.223.026 5.86.026 8.083 0s.404-.048-4.042-.048-6.264.022-4.041.048m37.502 5.66c.207.04.507.038.666-.003.16-.042-.01-.075-.377-.073-.366.002-.497.036-.289.076" data-color="5"/>
    </g>
</svg>
